<svg xmlns="http://www.w3.org/2000/svg" width="13" height="13" viewBox="0 0 13 13">
  <defs>
    <style>
      .cls-1 {
        fill: #f4f5f6;
        fill-rule: evenodd;
      }
    </style>
  </defs>
  <path class="cls-1" d="M885.438,1038H889a1,1,0,0,1,1,1v3.91a1,1,0,0,1-1,1h-3.562a1,1,0,0,1-1-1V1039A1,1,0,0,1,885.438,1038ZM878,1038h3.563a1,1,0,0,1,1,1v3.91a1,1,0,0,1-1,1H878a1,1,0,0,1-1-1V1039A1,1,0,0,1,878,1038Zm7.438,7.09H889a1,1,0,0,1,1,1V1050a1,1,0,0,1-1,1h-3.562a1,1,0,0,1-1-1v-3.91A1,1,0,0,1,885.438,1045.09Zm-7.438,0h3.563a1,1,0,0,1,1,1V1050a1,1,0,0,1-1,1H878a1,1,0,0,1-1-1v-3.91A1,1,0,0,1,878,1045.09Z" transform="translate(-877 -1038)"/>
</svg>
